<?xml version="1.0"?>
<svg xmlns="http://www.w3.org/2000/svg" xmlns:xlink="http://www.w3.org/1999/xlink" viewBox="0 0 64 64" width="512" height="512"><defs><linearGradient id="linear-gradient" x1="1" y1="13.5" x2="65.125" y2="13.5" gradientUnits="userSpaceOnUse"><stop offset="0" stop-color="#fec183"/><stop offset="0.173" stop-color="#fea981"/><stop offset="0.538" stop-color="#fe6b7b"/><stop offset="1" stop-color="#ff1572"/></linearGradient><linearGradient id="linear-gradient-2" y1="44" x2="65.125" y2="44" xlink:href="#linear-gradient"/><linearGradient id="linear-gradient-3" y1="42" x2="65.125" y2="42" xlink:href="#linear-gradient"/><linearGradient id="linear-gradient-4" y1="41" x2="65.125" y2="41" xlink:href="#linear-gradient"/><linearGradient id="linear-gradient-6" y1="33" x2="65.125" y2="33" xlink:href="#linear-gradient"/><linearGradient id="linear-gradient-7" y1="8" x2="65.125" y2="8" xlink:href="#linear-gradient"/><linearGradient id="linear-gradient-8" y1="16" x2="65.125" y2="16" xlink:href="#linear-gradient"/><linearGradient id="linear-gradient-9" y1="6" x2="65.125" y2="6" xlink:href="#linear-gradient"/></defs><g id="Gradient_outline" data-name="Gradient outline"><path d="M32,8c-.11,0-11,.126-11,11h2c0-8.859,8.635-9,9-9Z" style="fill:url(#linear-gradient)"/><rect x="28" y="43" width="2" height="2" style="fill:url(#linear-gradient-2)"/><rect x="32" y="41" width="2" height="2" style="fill:url(#linear-gradient-3)"/><rect x="25" y="40" width="2" height="2" style="fill:url(#linear-gradient-4)"/><rect x="36" y="43" width="2" height="2" style="fill:url(#linear-gradient-2)"/><path d="M58,54H45a1,1,0,0,1-1-1V51a1,1,0,0,1,1-1h6a6.006,6.006,0,0,0,6-6V30h.83A4.09,4.09,0,0,0,62,26.213,3.97,3.97,0,0,0,60.9,23.246,4.017,4.017,0,0,0,58,22H56a7.009,7.009,0,0,0-7,7V41a1,1,0,0,1-2,0V19.4A15.183,15.183,0,0,0,32.724,4.017,15,15,0,0,0,17,19V41a1,1,0,0,1-2,0V23a7.009,7.009,0,0,0-7-7H6.262a4.187,4.187,0,0,0-4.134,3.211A3.943,3.943,0,0,0,6,24H7V44a6.006,6.006,0,0,0,6,6h6a1,1,0,0,1,1,1v2a1,1,0,0,1-1,1H6a4,4,0,0,0,0,8H23a7.009,7.009,0,0,0,7-7V50h4v5a7.009,7.009,0,0,0,7,7H58a4,4,0,0,0,0-8ZM35.1,30a5,5,0,0,1,9.8,0Zm6.124,2a1.25,1.25,0,0,1-2.45,0Zm-4.45,0a3.233,3.233,0,0,0,6.45,0H44.9a5,5,0,0,1-9.8,0Zm-16,0a3.233,3.233,0,0,0,6.45,0H28.9a5,5,0,0,1-9.8,0Zm2,0h2.45a1.25,1.25,0,0,1-2.45,0ZM19.1,30a5,5,0,0,1,9.8,0ZM58,60H57V58H55v2H53V58H51v2H49V58H47v2H45V58H43v2H41a5.006,5.006,0,0,1-5-5V49a1,1,0,0,0-1-1H29a1,1,0,0,0-1,1v6a5.006,5.006,0,0,1-5,5H21V58H19v2H17V58H15v2H13V58H11v2H9V58H7v2H6a2,2,0,0,1,0-4H19a3,3,0,0,0,3-3V51a3,3,0,0,0-3-3H13a4,4,0,0,1-4-4V40h2V38H9V36h2V34H9V32h2V30H9V28h2V26H9V24h2V22H6a1.971,1.971,0,0,1-1.539-.729,1.926,1.926,0,0,1-.378-1.642A2.18,2.18,0,0,1,6.262,18H8a5.006,5.006,0,0,1,5,5V41a3,3,0,0,0,6,0V35.889a7,7,0,1,0,0-9.778V19A13,13,0,0,1,32.63,6.015,13.187,13.187,0,0,1,45,19.4v6.715a7,7,0,1,0,0,9.778V41a3,3,0,0,0,6,0V29a5.006,5.006,0,0,1,5-5h2a2,2,0,0,1,2,2.108A2.119,2.119,0,0,1,57.83,28H53v2h2v2H53v2h2v2H53v2h2v2H53v2h2v2H53v2h1.444A3.987,3.987,0,0,1,51,48H45a3,3,0,0,0-3,3v2a3,3,0,0,0,3,3H58a2,2,0,0,1,0,4Z" style="fill:url(#linear-gradient-6)"/><path d="M12,12A4,4,0,1,0,8,8,4,4,0,0,0,12,12Zm0-6a2,2,0,1,1-2,2A2,2,0,0,1,12,6Z" style="fill:url(#linear-gradient-7)"/><path d="M53,19a3,3,0,1,0-3-3A3,3,0,0,0,53,19Zm0-4a1,1,0,1,1-1,1A1,1,0,0,1,53,15Z" style="fill:url(#linear-gradient-8)"/><path d="M58,10a4,4,0,1,0-4-4A4,4,0,0,0,58,10Zm0-6a2,2,0,1,1-2,2A2,2,0,0,1,58,4Z" style="fill:url(#linear-gradient-9)"/></g></svg>
